<?xml version="1.0" encoding="UTF-8" standalone="no"?>
<svg width="64px" height="37px" viewBox="0 0 64 37" version="1.1" xmlns="http://www.w3.org/2000/svg" xmlns:xlink="http://www.w3.org/1999/xlink" xmlns:sketch="http://www.bohemiancoding.com/sketch/ns">
    <title>Artboard 1@2x</title>
    <description>Created with Sketch (http://www.bohemiancoding.com/sketch)</description>
    <defs></defs>
    <g id="home" stroke="none" stroke-width="1" fill="none" fill-rule="evenodd" sketch:type="MSPage">
        <g id="Artboard-1" sketch:type="MSArtboardGroup" transform="translate(-69.000000, -61.000000)" fill="#FFFFFF">
            <path d="M131.729382,73.6004187 C131.673634,73.2422415 127.252756,69.4039124 126.751929,69.2936339 C126.251101,69.1842668 124.297195,68.9031022 121.677936,69.3706465 C120.320943,69.6126212 118.999756,70.0304946 118.363411,69.3811276 C117.936008,68.9450263 115.805792,63.7983934 115.541101,63.5896845 C115.276411,63.3814314 107.739526,61.3522162 107.411835,61.4998617 C107.156662,61.6146972 104.208353,62.6810263 102.014684,64.8856845 C101.738209,65.1645706 101.275001,65.2593554 100.950483,65.2666465 C100.625965,65.2593554 100.163209,65.1645706 99.8858279,64.8856845 C97.6917056,62.6810263 94.7443027,61.6146972 94.4891301,61.4998617 C94.1614394,61.3522162 86.6245545,63.3814314 86.3598639,63.5896845 C86.0951732,63.7983934 83.9645042,68.9450263 83.5375545,69.3811276 C82.9012092,70.0304946 81.5795689,69.6126212 80.2230294,69.3706465 C77.6042236,68.9031022 75.6498639,69.1842668 75.1490366,69.2936339 C74.6482092,69.4039124 70.2273315,73.2422415 70.1711301,73.6004187 C70.1153819,73.9581402 69.479943,77.7540896 69.7935833,79.5326719 C70.705497,84.7107478 74.231684,87.9913048 79.0994538,88.0815326 C83.7836625,88.1685706 84.5664035,84.7585959 86.0122308,88.8944946 C86.7392236,90.9747478 86.2905186,91.9590516 83.3789214,91.8979883 C81.5976984,91.8606212 81.3683603,91.6291276 80.0711948,91.6564693 C79.6197704,91.666039 79.1905545,91.9203174 79.0278423,92.0843681 C78.8170869,92.2976339 78.6629862,92.582444 78.7930653,93.0281149 C79.2444898,94.5779377 89.4464107,97.2364693 100.759216,97.2364693 L100.908332,97.2373807 L100.992634,97.2373807 L101.141749,97.2364693 C112.454555,97.2364693 122.656022,94.5779377 123.1079,93.0281149 C123.237979,92.582444 123.084332,92.2976339 122.873123,92.0843681 C122.710411,91.9203174 122.280742,91.666039 121.830224,91.6564693 C120.532605,91.6291276 120.303267,91.8606212 118.522044,91.8979883 C115.610447,91.9590516 115.162195,90.9747478 115.888734,88.8944946 C117.334562,84.7585959 118.117303,88.1685706 122.801511,88.0815326 C127.669281,87.9913048 131.195015,84.7107478 132.107382,79.5326719 C132.421022,77.7540896 131.785583,73.9581402 131.729382,73.6004187 C131.729382,73.6004187 131.785583,73.9581402 131.729382,73.6004187 L131.729382,73.6004187 L131.729382,73.6004187 Z M79.0994538,85.1040136 C78.4381804,85.1040136 77.8004754,85.0023934 77.2003891,84.8141909 C75.6648207,84.3316086 74.37672,83.2807731 73.5808351,81.9073048 C73.0319646,80.9603681 72.7174179,79.8598617 72.7174179,78.6873554 C72.7174179,77.7436086 72.9209214,76.8472541 73.286684,76.0393048 C73.8418999,74.8130263 74.7692236,73.7918111 75.9236193,73.1228491 C76.8595545,72.5810263 77.9441517,72.2711529 79.0994538,72.2711529 C80.1709071,72.2711529 81.1816265,72.5377352 82.0690653,73.008925 C83.1482236,73.5817352 84.0451804,74.4557605 84.6484394,75.5202668 C85.178274,76.4548997 85.4814898,77.5362668 85.4814898,78.6873554 C85.4814898,79.8229503 85.1864322,80.8911022 84.6692884,81.8175326 C84.1965617,82.6637605 83.538461,83.3928744 82.7507344,83.9474567 C81.7150869,84.6761149 80.4564466,85.1040136 79.0994538,85.1040136 L79.0994538,85.1040136 L79.0994538,85.1040136 L79.0994538,85.1040136 Z M92.9295402,65.2087731 C93.809274,65.2087731 94.6477632,65.3887731 95.411015,65.7136845 C96.7933891,66.302444 97.9278423,67.3669503 98.6099646,68.7016845 C99.0582164,69.5793554 99.3115761,70.5736845 99.3115761,71.6263428 C99.3115761,72.4078617 99.1715258,73.157482 98.9158999,73.8505959 C98.4481589,75.1187984 97.5928999,76.1987984 96.4951589,76.9443174 C95.4762812,77.63652 94.2489143,78.0411782 92.9295402,78.0411782 C91.8195617,78.0411782 90.7753027,77.7545453 89.865202,77.2519124 C88.8653603,76.6996086 88.0273243,75.8861909 87.4440078,74.9027984 C86.8747416,73.9431022 86.5475042,72.823001 86.5475042,71.6263428 C86.5475042,70.1170769 87.068274,68.7276592 87.9384898,67.6307984 C88.5104754,66.9103428 89.2324826,66.3152035 90.0578279,65.8955073 C90.9216984,65.4562162 91.8970653,65.2087731 92.9295402,65.2087731 C92.9295402,65.2087731 91.8970653,65.2087731 92.9295402,65.2087731 L92.9295402,65.2087731 L92.9295402,65.2087731 Z M113.360576,84.7791022 C112.12913,92.0182921 104.386475,92.9547478 101.066511,92.8513048 L100.950483,92.8522162 L100.834454,92.8513048 C97.5144898,92.9547478 89.7713819,92.0182921 88.5399358,84.7791022 C88.2321876,82.9690769 88.4193747,81.6343428 89.111015,81.2096339 C90.1217344,80.58852 91.9292452,81.303963 93.8826984,81.1836592 C98.3303171,80.9106972 99.605274,78.8892288 100.950483,78.8463934 C102.295691,78.8892288 103.570195,80.9106972 108.018267,81.1836592 C109.97172,81.303963 111.779684,80.58852 112.789497,81.2096339 C113.481591,81.6343428 113.668324,82.9690769 113.360576,84.7791022 C113.360576,84.7791022 113.668324,82.9690769 113.360576,84.7791022 L113.360576,84.7791022 L113.360576,84.7791022 Z M108.971425,78.0411782 C107.868245,78.0411782 106.829878,77.7581909 105.923403,77.2605706 C104.841073,76.6667984 103.947742,75.7667984 103.358986,74.6776845 C102.869037,73.7699377 102.589842,72.730039 102.589842,71.6263428 C102.589842,70.6274567 102.817821,69.6814314 103.224375,68.837482 C103.674893,67.9019377 104.345231,67.0917098 105.16695,66.47652 C106.229792,65.6804187 107.5469,65.2087731 108.971425,65.2087731 C109.976706,65.2087731 110.928504,65.4434567 111.775152,65.8613301 C113.098605,66.5147984 114.165526,67.6162162 114.779662,68.9668997 C115.147691,69.7771276 115.353461,70.6775833 115.353461,71.6263428 C115.353461,72.8640136 115.002655,74.021482 114.396224,75.0030516 C113.614389,76.2671529 112.407871,77.2396086 110.977907,77.7162668 C110.347001,77.9272541 109.67213,78.0411782 108.971425,78.0411782 L108.971425,78.0411782 L108.971425,78.0411782 L108.971425,78.0411782 Z M122.801511,85.1040136 C121.960303,85.1040136 121.156713,84.9395073 120.420655,84.6405706 C119.249037,84.1652795 118.248742,83.350039 117.541691,82.3174314 C116.833734,81.2843681 116.419475,80.033482 116.419475,78.6873554 C116.419475,77.8005706 116.598957,76.9557098 116.923929,76.1869503 C117.390763,75.0818871 118.157641,74.1344946 119.12077,73.4486719 C120.161857,72.7072541 121.431828,72.2711529 122.801511,72.2711529 C123.920101,72.2711529 124.972065,72.5618871 125.887152,73.0722668 C127.095483,73.7462415 128.064504,74.8025453 128.631504,76.0784946 C128.985936,76.875963 129.183094,77.7586465 129.183094,78.6873554 C129.183094,79.4506465 129.049842,80.183406 128.805547,80.8633048 C128.363641,82.0923174 127.557785,83.1481655 126.520324,83.8982415 C125.472439,84.65652 124.187965,85.1040136 122.801511,85.1040136 L122.801511,85.1040136 Z" id="kd" sketch:type="MSShapeGroup"></path>
        </g>
    </g>
</svg>